# xmcd
#
# Track frame offsets:
#	150
#	15040
#	29617
#	49642
#	66415
#	80635
#	92837
#	106655
#	134602
#	147762
#
# Disc length: 2152 seconds
# Revision: 9
# Processed by: cddbd v1.5.2PL0 Copyright (c) Steve Scherf et al.
# Submitted via: dBpowerAMP V12.0
#
DISCID=7f08660a
DTITLE=Astrud Gilberto - That's Jazz ~ The Girl from Ipanema [dBP-LITE-1-FLAC@]
DYEAR=1990
DGENRE=Jazz
TTITLE0=The Girl From Ipanema
TTITLE1=Love For Sale
TTITLE2=Far Away
TTITLE3=Meu Piao
TTITLE4=We'll Make Today Last Night Again
TTITLE5=Wanting You
TTITLE6=Mamae Eu Quero
TTITLE7=All I've Got
TTITLE8=The Puppy Song
TTITLE9=Black Magic
EXTD=
EXTT0=
EXTT1=
EXTT2=
EXTT3=
EXTT4=
EXTT5=
EXTT6=
EXTT7=
EXTT8=
EXTT9=
PLAYORDER=
